<svg width="512" height="512" viewBox="0 0 512 512" fill="none" xmlns="http://www.w3.org/2000/svg">
<g clip-path="url(#clip0_165_99)">
<path fill-rule="evenodd" clip-rule="evenodd" d="M503.147 34.5596H501.227C501.227 34.5596 503.147 35.4129 503.147 34.5596Z" fill="#020202"/>
<path fill-rule="evenodd" clip-rule="evenodd" d="M84.6719 181.76C85.6773 182.34 86.8177 182.646 87.9786 182.646C89.1394 182.646 90.2799 182.34 91.2852 181.76C88.8238 204.476 92.5923 227.433 102.187 248.17C111.948 273.575 131.05 294.288 155.584 306.069C164.898 309.624 175.14 309.923 184.646 306.917C194.151 303.912 202.359 297.778 207.936 289.514C211.648 283.904 213.995 277.504 214.763 270.826C215.425 263.717 215.425 256.56 214.763 249.45C220.352 250.304 226.048 250.304 231.637 249.45C243.224 247.71 253.741 241.698 261.12 232.597C265.792 224.32 268.565 215.125 269.227 205.674C269.995 197.98 269.995 190.286 269.227 182.592C267.882 172.882 267.882 163.033 269.227 153.322C269.227 153.322 279.275 131.989 280.555 129.408H285.461C296.745 130.295 307.487 134.612 316.245 141.781C323.541 149.546 327.915 159.594 328.619 170.218C329.899 178.325 328.619 190.058 330.539 199.893C331.392 205.76 333.675 211.328 337.152 216.128C341.614 221.808 347.201 226.505 353.563 229.927C359.924 233.348 366.924 235.419 374.123 236.01C387.819 237.254 401.562 234.197 413.44 227.264C422.656 222.229 429.845 214.144 433.707 204.394C437.867 191.04 438.677 176.874 436.075 163.157C433.451 147.133 432.308 130.901 432.661 114.666C433.024 104.256 435.648 94.0585 440.341 84.7571C445.12 75.9038 451.413 67.9465 458.923 61.2691C466.83 54.3998 475.235 48.206 484.139 42.6878C488.96 38.6914 494.229 35.4131 499.947 32.8531H502.933C504.612 32.7446 506.187 32.0002 507.336 30.7715C508.486 29.5429 509.123 27.9223 509.12 26.2398C508.89 25.1064 508.414 24.0374 507.725 23.1084C507.037 22.1793 506.152 21.4129 505.135 20.8635C504.117 20.314 502.991 19.9948 501.837 19.9285C500.682 19.8622 499.527 20.0504 498.453 20.4798C491.157 23.3385 484.039 26.6096 477.099 30.2931C465.351 37.0394 454.377 45.0516 444.373 54.1865C437.195 61.2678 431.15 69.4132 426.453 78.3358C420.438 89.027 416.861 100.916 415.979 113.152C415.019 130.325 415.659 147.562 417.899 164.629C419.392 173.909 419.392 183.36 417.899 192.618C417.007 196.433 415.28 200.002 412.841 203.068C410.403 206.134 407.314 208.62 403.797 210.346C395.388 214.948 385.753 216.812 376.235 215.68C371.83 215.246 367.563 213.904 363.704 211.738C359.845 209.571 356.477 206.628 353.813 203.093C352.02 199.901 351.134 196.278 351.253 192.618V167.21C349.844 150.994 342.633 135.829 330.944 124.501C318.986 113.944 304.081 107.303 288.235 105.472C282.906 104.969 277.542 104.969 272.213 105.472C268.117 105.728 264.128 106.51 260.245 107.818C255.04 109.682 249.984 111.893 245.077 114.453C240.384 117.07 235.833 119.914 231.424 122.986C216.188 133.143 203.823 147.051 195.52 163.37C187.693 180.014 184.523 198.467 186.347 216.768C187.413 227.456 189.333 238.144 190.187 248.597C190.827 255.011 190.827 261.426 190.187 267.84C189.93 270.707 188.977 273.469 187.412 275.885C185.847 278.301 183.717 280.299 181.205 281.706C178.668 283.263 175.803 284.208 172.837 284.467C169.872 284.727 166.886 284.293 164.117 283.2C144.799 274.183 129.555 258.262 121.387 238.57C111.626 219.253 108.335 197.309 112 175.978C121.826 142.146 140.911 111.732 167.104 88.1705C192.593 63.5416 223.467 45.1867 257.28 34.5598C265.6 31.9998 278.635 26.8798 292.096 23.8931C299.021 21.8282 306.329 21.3902 313.451 22.6131C314.362 22.9114 315.324 23.0258 316.28 22.9498C317.236 22.8738 318.168 22.6089 319.021 22.1704C319.874 21.732 320.632 21.1286 321.251 20.3953C321.869 19.662 322.336 18.8134 322.624 17.8985C323.16 16.0316 322.947 14.0293 322.031 12.3167C321.115 10.604 319.568 9.31567 317.717 8.72514C310.673 7.34473 303.428 7.34473 296.384 8.72514C281.906 11.6265 267.662 15.3954 253.653 20.0318C217.019 30.657 183.367 49.6779 155.371 75.5838C126.287 100.761 104.772 133.525 93.2266 170.218C92.5565 169.227 91.5836 168.478 90.4532 168.085C84.3656 165.031 79.0503 160.635 74.9079 155.229C70.7655 149.823 67.9038 143.547 66.5386 136.874C63.2074 122.761 63.7231 108.012 68.0319 94.1651C72.8645 80.8815 81.4733 69.2993 92.7999 60.8425C104.712 51.1632 117.766 42.9812 131.669 36.4798C159.634 21.844 190.688 14.0916 222.251 13.8665C223.285 14.0545 224.35 13.9848 225.351 13.6634C226.352 13.3421 227.259 12.779 227.991 12.024C228.723 11.269 229.257 10.3453 229.547 9.33458C229.837 8.32387 229.873 7.25729 229.653 6.22914C229.369 4.99118 228.712 3.87057 227.769 3.01946C226.826 2.16836 225.644 1.62801 224.384 1.4718C182.69 -3.53619 140.465 4.43487 103.467 24.2985C90.1147 30.5585 78.1748 39.4673 68.3721 50.4839C58.5693 61.5005 51.1084 74.3949 46.4426 88.3838C42.4143 106.006 43.2252 124.39 48.7892 141.589C51.2854 150.588 55.8207 158.89 62.0435 165.853C68.2663 172.815 76.0092 178.251 84.6719 181.738M217.749 173.61C223.687 160.834 232.811 149.799 244.245 141.568L255.552 134.954C253.523 138.893 251.742 142.954 250.219 147.114C248.156 152.789 246.876 158.627 246.379 164.629C245.852 175.097 245.852 185.564 246.379 196.032C247.083 204.437 245.696 212.885 242.325 220.608C239.079 225.805 234.075 229.666 228.224 231.488C223.369 233.553 218.113 234.501 212.843 234.261L210.283 214.421C209.189 200.4 211.763 186.336 217.749 173.61Z" fill="white"/>
<path fill-rule="evenodd" clip-rule="evenodd" d="M511.915 390.442C511.8 389.102 511.378 387.805 510.681 386.654C509.984 385.503 509.031 384.528 507.895 383.806C506.76 383.083 505.473 382.633 504.135 382.489C502.798 382.345 501.444 382.511 500.181 382.976C495.032 384.784 490.301 387.614 486.272 391.296C475.519 402.736 463.56 412.979 450.603 421.845C439.535 426.279 427.349 427.1 415.787 424.192C401.062 419.71 386.984 413.327 373.909 405.205C359.084 394.802 342.294 387.529 324.565 383.829C316.527 382.783 308.356 383.511 300.629 385.962C287.646 390.697 275.361 397.163 264.107 405.184C255.182 411.529 244.971 415.833 234.197 417.792C228.739 418.414 223.229 418.414 217.771 417.792C212.773 417.389 207.903 416.012 203.435 413.738C193.621 407.978 185.301 398.57 175.467 392.362C169.811 388.867 163.478 386.613 156.885 385.749C137.988 385.24 119.423 390.778 103.893 401.557C91.4976 410.376 77.8097 417.22 63.3173 421.845C57.8657 422.896 52.232 422.46 47.007 420.583C41.782 418.706 37.1584 415.458 33.6213 411.178C28.5927 405.683 22.928 400.806 16.7466 396.65C14.8701 395.611 12.7047 395.215 10.5817 395.523C8.45884 395.832 6.49541 396.827 4.99195 398.357C3.38958 400.341 2.2916 402.683 1.79195 405.184C1.79195 411.37 1.79195 426.56 0.511947 432.106C-0.0427194 442.076 -0.0427194 452.046 0.511947 462.016C0.511947 476.949 1.79195 492.565 2.85861 504.746C2.70453 505.626 2.74256 506.528 2.97009 507.391C3.19762 508.254 3.60926 509.058 4.17675 509.747C4.74424 510.436 5.45413 510.994 6.25769 511.383C7.06124 511.772 7.93943 511.982 8.83195 512C9.67306 511.946 10.4952 511.726 11.2511 511.353C12.007 510.98 12.6819 510.462 13.2369 509.827C13.7919 509.193 14.2162 508.455 14.4853 507.657C14.7545 506.858 14.8632 506.014 14.8053 505.173V462.442C14.9048 453.098 15.4737 443.769 16.5119 434.453C17.2657 430.329 18.2613 426.275 19.4986 422.293C20.1595 422.683 20.7448 423.189 21.2266 423.786C26.5915 430.518 33.6607 435.69 41.7001 438.767C49.7395 441.843 58.4559 442.71 66.944 441.28C84.0069 436.796 100.236 429.592 115.008 419.946C126.638 412.062 140.476 408.087 154.517 408.597C157.867 409.173 161.067 410.41 163.904 412.224C173.547 418.432 181.867 428.053 191.488 433.6C197.291 436.928 203.648 439.168 210.261 440.213C219.25 442.005 228.302 442.574 237.419 441.92C260.267 439.573 280.128 421.866 301.504 412.032C308.033 408.509 315.443 406.953 322.837 407.552C337.493 410.112 351.488 415.466 364.075 423.338C378.837 432.618 394.795 439.808 411.499 444.714C427.392 448.341 444.011 446.762 458.923 440.234C463.687 437.916 468.032 434.994 471.957 431.466C479.424 424.853 487.765 415.018 495.04 407.957V503.466C495.04 504.419 495.228 505.362 495.592 506.242C495.957 507.122 496.491 507.922 497.164 508.595C497.838 509.269 498.638 509.803 499.518 510.168C500.398 510.532 501.341 510.72 502.293 510.72C503.246 510.72 504.189 510.532 505.069 510.168C505.949 509.803 506.749 509.269 507.422 508.595C508.096 507.922 508.63 507.122 508.995 506.242C509.359 505.362 509.547 504.419 509.547 503.466L511.253 434.048V394.965C511.893 393.258 511.893 391.338 511.893 390.485" fill="#0C6FFF"/>
</g>
<defs>
<clipPath id="clip0_165_99">
<rect width="512" height="512" fill="white"/>
</clipPath>
</defs>
</svg>
